<svg xmlns="http://www.w3.org/2000/svg" xmlns:xlink="http://www.w3.org/1999/xlink" version="1.1" x="0px" y="0px" viewBox="0 0 100 125" enable-background="new 0 0 100 100" xml:space="preserve"><g><path fill="#000000" d="M58.9,27.7c0-4.9-4-9-9-9c-4.9,0-9,4-9,9c0,4.9,4,9,9,9C54.8,36.6,58.9,32.6,58.9,27.7z M49.9,33.7   c-3.3,0-6-2.7-6-6c0-3.3,2.7-6,6-6c3.3,0,6,2.7,6,6C55.9,31,53.2,33.7,49.9,33.7z"/><path fill="#000000" d="M72.5,20.5c-4.9,0-9,4-9,9s4,9,9,9s9-4,9-9S77.5,20.5,72.5,20.5z M72.5,35.5c-3.3,0-6-2.7-6-6   c0-3.3,2.7-6,6-6c3.3,0,6,2.7,6,6C78.6,32.8,75.9,35.5,72.5,35.5z"/><path fill="#000000" d="M62.1,35.2c-0.3-0.4-0.7-0.6-1.1-0.7c-0.5,0-0.9,0.2-1.2,0.5l-3.8,4.4c-0.5,0.6-0.5,1.5,0.1,2.1   c0.6,0.5,1.5,0.5,2.1-0.1l2.6-2.9l2,3c0.3,0.4,0.8,0.7,1.2,0.7c0.3,0,0.5-0.1,0.8-0.2c0.7-0.4,0.9-1.3,0.4-2L62.1,35.2z"/><circle fill="#000000" cx="72.5" cy="29.5" r="4.1"/><circle fill="#000000" cx="49.9" cy="27.8" r="4.1"/><path fill="#000000" d="M91,34c-0.2-0.8-0.9-1.3-1.7-1.2l-3.1,0.6c0.6-3.6,0.1-8.3-1.3-13C84,18,81.7,11.9,77.7,9.6   C77,9.2,76.3,9,75.6,9c-2.6,0-3.9,2.3-4.9,4.2c-0.4,0.8-1.3,2.4-1.8,2.6c-1.2,0.4-2.8,0.7-4.7,0.7c-2.7,0-5.3-0.5-6.6-0.8   c-0.4-0.5-1.1-2-1.5-2.9c-0.5-1.1-1-2.2-1.6-3.2C53.4,7.9,52,7,50.4,7c0,0,0,0,0,0h0c-5.1,0-9.2,5.9-11.2,9.4   c-1.9,3.4-3.4,7.2-4.1,10.5l-4.3-1.5c-0.8-0.3-1.6,0.1-1.9,0.9c-0.3,0.8,0.1,1.6,0.9,1.9l4.8,1.7c0,0.5-0.1,1.1-0.1,1.6   c0,0.3,0,0.7,0,1l-4.7,1.1c-0.8,0.2-1.3,1-1.1,1.8c0.2,0.7,0.8,1.1,1.4,1.1c0.1,0,0.2,0,0.3,0l4.4-1.1c0.6,2.6,1.8,5,3.6,7.2   c-0.2,0.2-0.3,0.4-0.3,0.6L37.1,48c-0.1,0.4,0,0.7,0.1,1.1c-4.7,3.3-11.2,8.5-15.4,14.4c-1.1-2.4-2.5-7.3-0.6-14   c0.4-1.4,0.9-2.8,1.4-4.2c1.3-3.5,2.4-6.5,1.3-8.9c-0.6-1.2-1.6-2-3.1-2.5c-1.8-0.6-3.6-0.2-5.4,1.1C11.1,38,8.1,46.1,8.1,55.1   c0,7.7,2.9,17.1,9.4,21c0.2,4.1,1.6,7.5,4.2,9.9c4.3,4.1,10.5,4.4,12.5,4.4c0.3,0,0.5,0,0.6,0c1.7,0,4.8-0.7,5.8-3.4   c0.3-0.8,0.3-1.7,0.1-2.5c0.9,0.9,2.1,1.7,3.5,1.9c0,0,0,0,0,0c0.9,2.6,2.8,4,5.5,4c0.2,0,0.4,0,0.7,0c1.5-0.1,2.7-0.7,3.5-1.7   c0.5-0.6,1.1-1.8,0.8-3.4c-0.5-3.5-0.5-3.7,2.6-9.5c0,0,0.1,0,0.1,0c1,0,2.6-0.1,4.1-0.6l-1,5.1c-1.2,5.8,2.4,10.9,8.7,12.3   c0.8,0.2,1.6,0.3,2.3,0.3c2,0,4-0.6,5.8-1.7c2.6-1.7,4.3-4.3,4.9-7.3l2.4-11.7c0.7-3.5-0.2-7.2-2.5-9.9c0,0,0,0-0.1-0.1   c-0.1-0.1-0.5-0.5-1.1-1c0.2-0.5,0.2-1,0.3-1.3c0.1-1.3-0.4-2.6-1.3-3.6c-1.1-1.3-2.9-2.2-4.8-2.3c-0.3,0-0.5,0-0.8,0   c-0.9,0-1.7,0.1-2.3,0.3l0.1-4.2c0-0.1,0-0.2,0-0.3c1.7-0.7,3.3-1.5,4.7-2.5c2.3-1.6,4.2-3.5,5.8-5.6l3.8,2.2   c0.2,0.1,0.5,0.2,0.7,0.2c0.5,0,1-0.3,1.3-0.7c0.4-0.7,0.2-1.6-0.5-2l-3.7-2.1c0.4-0.8,0.8-1.7,1.1-2.5l4.5-0.9   C90.6,35.6,91.1,34.8,91,34z M60.3,57.8l2,2.9L60,63.3l-2-2.6L60.3,57.8z M11,55.1c0-9.2,3.2-15.7,6.2-17.8c1-0.7,1.9-0.9,2.8-0.7   c1.1,0.4,1.3,0.9,1.4,1c0.6,1.3-0.4,4-1.4,6.6c-0.5,1.4-1.1,2.9-1.5,4.4c-2.7,9.4,0.5,15.8,1.6,17.7c-1.1,2.1-2,4.2-2.4,6.4   C13.1,68.8,11,61.2,11,55.1z M41.8,81.1c0.6-0.3,1.2-0.6,1.8-0.9c0,1,0.1,2,0.2,3C43,82.7,42.3,81.9,41.8,81.1z M56.7,72.9   C56.7,72.9,56.7,72.9,56.7,72.9C56.7,72.9,56.6,72.9,56.7,72.9C56.6,72.9,56.6,72.9,56.7,72.9c-0.1,0-0.2,0-0.3,0c0,0,0,0-0.1,0   c-0.1,0-0.1,0-0.2,0c0,0,0,0-0.1,0c-0.1,0-0.1,0.1-0.2,0.1c0,0,0,0,0,0c-0.1,0-0.1,0.1-0.2,0.1c0,0,0,0,0,0   c-0.1,0.1-0.1,0.1-0.2,0.2c0,0,0,0.1-0.1,0.1c0,0-0.1,0.1-0.1,0.1c-3.7,6.9-4,7.5-3.3,12.1c0.1,0.5,0,0.9-0.2,1.2   c-0.3,0.3-0.8,0.5-1.5,0.6c-1.7,0.1-2.6-0.5-3.2-2c-0.4-1-0.5-4.8-0.6-8.3c0,0,0,0,0-0.1c0-1.3,0-2.6,0-3.7c0-0.8-0.7-1.5-1.5-1.5   c0,0,0,0,0,0c-0.8,0-1.5,0.7-1.5,1.5c0,0.5,0,1.8,0,3.3c-1.4,1.5-5.7,2.8-8.5,3.3c-0.7,0.1-1.2,0.7-1.2,1.4c0,0.7,0.4,1.3,1.1,1.5   c1.4,0.3,2.4,1,2.9,1.9c0.2,0.3,0.3,0.7,0.1,1.2c-0.6,1.5-3.1,1.5-3.1,1.5c0,0-0.1,0-0.1,0c-0.1,0-6.8,0.3-11-3.6   c-2.2-2.1-3.3-5-3.3-8.7c0-9.6,12.1-19.4,19.2-24.3c3,2,9.2,5.4,17.4,6.2L55,59.8c-0.4,0.5-0.4,1.3,0,1.8l3.7,4.9   c0.3,0.4,0.7,0.6,1.1,0.6c0,0,0,0,0.1,0c0.4,0,0.8-0.2,1.1-0.5l4.2-4.7c0.4-0.5,0.5-1.2,0.1-1.8l-1.9-2.8c1.9-0.1,3.8-0.4,5.8-0.9   c-0.4,0.7-0.6,1.4-0.7,2.1c0,0.5,0,0.9,0.1,1.4c-0.4,0.2-0.7,0.4-0.8,0.5c-2.3,1.7-4,4.2-4.6,7.1l-0.9,4.3   C60.7,72.9,57.8,73,56.7,72.9z M81.8,71.6l-2.4,11.7c-0.5,2.3-1.8,4.2-3.7,5.5c-1.8,1.1-3.9,1.5-5.9,1.1c-3.9-0.9-7.5-4-6.5-8.9   l1.7-8.2c0,0,0,0,0,0l1-4.8c0.4-2.2,1.7-4.1,3.4-5.3c0,0,0.1,0,0.1-0.1c0.1-0.1,0.2-0.1,0.3-0.2c1.1,1.1,2.7,1.8,4.7,1.9   c0.3,0,0.6,0,0.8,0c1.7,0,2.9-0.4,3.8-0.9c0.3,0.2,0.6,0.5,0.8,0.6C81.7,66.2,82.4,68.9,81.8,71.6z M75,56.9   c1.1,0.1,2.2,0.6,2.8,1.3c0.3,0.3,0.6,0.8,0.5,1.5c0,0.6-0.1,1.8-3,1.8c-0.2,0-0.4,0-0.7,0c-1.3-0.1-2.3-0.4-2.8-1.1   c-0.4-0.4-0.5-1-0.5-1.8c0.1-1.1,1.2-1.8,3-1.8C74.6,56.9,74.8,56.9,75,56.9z M59.9,49c-12.4,0-22.4-7.9-22.4-17.6   c0-7.6,7-21.5,12.9-21.5c0,0,0,0,0,0c2.4,0,3.6,7.7,6.2,8.5c1.4,0.4,4.5,1,7.7,1c2,0,4-0.2,5.7-0.8c2.8-1,3.8-6.6,5.6-6.6   c0.2,0,0.4,0.1,0.6,0.2c4.7,2.7,8.5,14.8,6.9,21.5C80.9,43,72.3,49,59.9,49z"/><path fill="#000000" d="M78.8,69.4l-9.1-2c-0.8-0.2-1.6,0.3-1.8,1.1c-0.2,0.8,0.3,1.6,1.1,1.8l9.1,2c0.1,0,0.2,0,0.3,0   c0.7,0,1.3-0.5,1.4-1.1C80.1,70.3,79.6,69.5,78.8,69.4z"/><path fill="#000000" d="M77.4,75.7l-9.1-2c-0.8-0.2-1.6,0.3-1.8,1.1c-0.2,0.8,0.3,1.6,1.1,1.8l9.1,2c0.1,0,0.2,0,0.3,0   c0.7,0,1.3-0.5,1.4-1.1C78.7,76.7,78.2,75.9,77.4,75.7z"/><path fill="#000000" d="M76,82.1l-9.1-2c-0.8-0.2-1.6,0.3-1.8,1.1c-0.2,0.8,0.3,1.6,1.1,1.8l9.1,2c0.1,0,0.2,0,0.3,0   c0.7,0,1.3-0.5,1.4-1.1C77.3,83,76.8,82.3,76,82.1z"/></g><text x="0" y="115" fill="#000000" font-size="5px" font-weight="bold" font-family="'Helvetica Neue', Helvetica, Arial-Unicode, Arial, Sans-serif">Created by HeadsOfBirds</text><text x="0" y="120" fill="#000000" font-size="5px" font-weight="bold" font-family="'Helvetica Neue', Helvetica, Arial-Unicode, Arial, Sans-serif">from the Noun Project</text></svg>