<svg xmlns="http://www.w3.org/2000/svg" viewBox="0 0 64 80" x="0px" y="0px"><g><path d="M52.231,55l1.477-7.037a9.921,9.921,0,0,0-8.195-11.85l.122-2.013A5.977,5.977,0,0,0,50,36h4a1,1,0,0,0,1-1,6,6,0,0,0-2.69-5A6,6,0,0,0,55,25a1,1,0,0,0-1-1H50a5.968,5.968,0,0,0-1.11.107,5.029,5.029,0,0,0,.11-1.03v-7.42c0-.131-.028-.256-.038-.386l1.184-4.144A22.155,22.155,0,0,0,51,5.033V3a1,1,0,0,0-1-1,22.287,22.287,0,0,0-9.919,2.342L38.7,5.034C38.577,5.026,38.463,5,38.343,5H25.657c-.12,0-.234.026-.352.034l-1.386-.692A22.287,22.287,0,0,0,14,2a1,1,0,0,0-1,1V5.033a22.155,22.155,0,0,0,.854,6.094l1.184,4.144c-.01.13-.038.255-.038.386v7.42a4.98,4.98,0,0,0,1.876,3.9l1.133.906.5,8.241a9.871,9.871,0,0,0-6.4,3.817c-.013-.074-.044-.146-.054-.22A5.064,5.064,0,0,1,12.3,37.3a6.284,6.284,0,0,0-.4-5.412l-.19-.321a1.017,1.017,0,0,0-.987-.482,10,10,0,0,0,.147,19.855l.047,0L11.769,55A6.008,6.008,0,0,0,6,61a1,1,0,0,0,1,1H57a1,1,0,0,0,1-1,5.985,5.985,0,0,0-5.769-6ZM34.01,60h-4V46.98h4Zm2-.02v-14a1,1,0,0,0-1-1h-6a1,1,0,0,0-1,1v14H21.951L20.435,34.971A13.606,13.606,0,0,0,22.9,37.748a14.9,14.9,0,0,0,1.473,1.085c1.429.913,2.832,1.734,4.223,2.47.048.028.1.055.128.071l2.819,1.49a1,1,0,0,0,.957-.011l6.179-3.469c.1-.051.2-.107.3-.161l.143-.08a12.371,12.371,0,0,0,2-1.4,13.477,13.477,0,0,0,2.464-2.762l-1.51,25ZM28,19.962c0,.013,0,.025,0,.038a3,3,0,0,0,1.8,2.745A.988.988,0,0,0,30.45,23H31v1.18l-2.883.577a1,1,0,0,1-1.028-.426l-1.257-1.886-1.664,1.11,1.257,1.885a2.988,2.988,0,0,0,2.491,1.337c.053,0,.107-.013.16-.016a4,4,0,0,0,6.751,2.066,1.342,1.342,0,0,0,.134-.145,4,4,0,0,0,.96-1.91,2.984,2.984,0,0,0,2.654-1.332l1.257-1.885-1.664-1.11-1.256,1.886a1.007,1.007,0,0,1-1.029.426L33,24.18V23h.55a.989.989,0,0,0,.637-.247A3,3,0,0,0,36,20c0-.013,0-.025,0-.038A6.237,6.237,0,0,1,40.5,18a6.492,6.492,0,0,1,5.971,4.23,3.018,3.018,0,0,1-.927,3.451l-.972.78h0l-6.1,4.881A3.008,3.008,0,0,1,36.6,32H27.4a3.008,3.008,0,0,1-1.874-.658l-5.77-4.615h0l-1.306-1.049a3.015,3.015,0,0,1-.924-3.448A6.492,6.492,0,0,1,23.5,18,6.237,6.237,0,0,1,28,19.962Zm4,6.058,1.953.39a2,2,0,0,1-.474.928c-.02.022-.048.052-.066.075a2.038,2.038,0,0,1-2.892-.075,2,2,0,0,1-.474-.928ZM34,20a1,1,0,0,1-1,1H31a1,1,0,0,1,0-2h2A1,1,0,0,1,34,20Zm9.69,9.729a11.72,11.72,0,0,1-3.871,6.493,10.19,10.19,0,0,1-1.665,1.168l-.17.095c-.066.037-.132.077-.244.133L32,40.842l-2.391-1.265c-.048-.028-.1-.056-.128-.071-1.29-.682-2.646-1.476-4.023-2.356a12.792,12.792,0,0,1-1.267-.932,11.793,11.793,0,0,1-3.852-6.469L24.28,32.9A5.024,5.024,0,0,0,27.4,34H36.6a5.024,5.024,0,0,0,3.123-1.1ZM52.874,34H50a4.008,4.008,0,0,1-3.874-3H49A4.008,4.008,0,0,1,52.874,34Zm0-8A4.008,4.008,0,0,1,49,29H46.126A4.008,4.008,0,0,1,50,26ZM49,4.025V5.033a20.2,20.2,0,0,1-.776,5.545l-.5,1.766c-.064-.072-.114-.154-.183-.223L41.878,6.465a5.02,5.02,0,0,0-.578-.476A20.3,20.3,0,0,1,49,4.025ZM38.343,7a3.017,3.017,0,0,1,2.121.879l5.658,5.656A2.983,2.983,0,0,1,47,15.657V19.2a8.3,8.3,0,0,0-6.287-3.179A1.98,1.98,0,0,0,41,15a2,2,0,1,0-3.3,1.506,8.3,8.3,0,0,0-2.5,1.47A2.983,2.983,0,0,0,33,17H31a2.983,2.983,0,0,0-2.2.976,8.3,8.3,0,0,0-2.5-1.47,2,2,0,1,0-3.015-.489A8.3,8.3,0,0,0,17,19.2V15.657a2.983,2.983,0,0,1,.878-2.122l5.658-5.656A3.017,3.017,0,0,1,25.657,7ZM15.776,10.578A20.2,20.2,0,0,1,15,5.033V4.025a20.3,20.3,0,0,1,7.7,1.964,5.02,5.02,0,0,0-.578.476l-5.658,5.656c-.069.069-.119.151-.183.223ZM4.018,41.526a8.018,8.018,0,0,1,6.311-8.343,4.389,4.389,0,0,1,.09,3.439,7.052,7.052,0,0,0-.35,3.369,6.746,6.746,0,0,0,.729,2.246A9.884,9.884,0,0,0,10.07,45.9a10.205,10.205,0,0,0,.222,2.065l.187.894A8.069,8.069,0,0,1,4.018,41.526ZM12,57h1a1,1,0,0,0,.979-1.2L12.25,47.558a8.207,8.207,0,0,1-.18-1.658,7.922,7.922,0,0,1,6.557-7.776L19.949,60H8.126A4.008,4.008,0,0,1,12,57Zm32.071,3,1.321-21.873a7.917,7.917,0,0,1,6.359,9.428l-1.73,8.24A1,1,0,0,0,51,57h1a3.98,3.98,0,0,1,3.875,3Z"/><rect x="24" y="9" width="2" height="2"/><rect x="38" y="9" width="2" height="2"/></g><text x="0" y="79" fill="#000000" font-size="5px" font-weight="bold" font-family="'Helvetica Neue', Helvetica, Arial-Unicode, Arial, Sans-serif">Created by monkik</text><text x="0" y="84" fill="#000000" font-size="5px" font-weight="bold" font-family="'Helvetica Neue', Helvetica, Arial-Unicode, Arial, Sans-serif">from the Noun Project</text></svg>